<?xml version="1.0" standalone="no"?>
<!DOCTYPE svg PUBLIC "-//W3C//DTD SVG 20010904//EN"
 "http://www.w3.org/TR/2001/REC-SVG-20010904/DTD/svg10.dtd">
<svg version="1.0" xmlns="http://www.w3.org/2000/svg"
 width="400.000000pt" height="400.000000pt" viewBox="0 0 400.000000 400.000000"
 preserveAspectRatio="xMidYMid meet">

<g transform="translate(0.000000,400.000000) scale(0.100000,-0.100000)"
fill="#000000" stroke="none">
<path d="M1461 3730 c-35 -11 -67 -23 -71 -27 -9 -10 -63 -595 -94 -1013 -36
-474 -39 -506 -55 -530 -9 -14 -18 -41 -21 -60 -3 -23 -10 -34 -19 -32 -16 3
-71 -46 -71 -64 0 -7 -183 -152 -406 -321 -491 -372 -608 -463 -612 -472 -1
-4 27 -41 63 -83 72 -84 71 -84 266 -137 57 -15 181 -52 274 -81 94 -29 204
-63 245 -75 41 -12 127 -38 190 -58 63 -19 331 -101 595 -182 264 -80 500
-153 525 -160 166 -51 290 -92 385 -127 l110 -40 148 4 c129 4 151 7 167 24
10 10 136 287 278 614 l259 595 6 101 c3 55 26 235 52 400 111 730 224 1493
228 1532 2 21 -8 27 -103 61 -96 35 -117 39 -250 45 -80 4 -426 22 -770 41
-344 18 -731 39 -860 45 -129 5 -271 12 -315 15 -60 3 -96 -1 -144 -15z m1800
-235 c5 36 6 26 3 -35 -2 -47 -7 -233 -10 -413 -4 -181 -11 -324 -15 -320 -5
5 -14 44 -20 87 -11 76 -2 400 19 646 6 77 7 80 11 35 l5 -50 7 50z m-423 -35
l0 -25 -8 25 c-4 14 -8 36 -8 50 l0 25 8 -25 c4 -14 8 -36 8 -50z m592 -80 c5
0 11 6 13 13 3 6 6 -25 6 -70 1 -68 -24 -240 -45 -306 -28 -90 -34 206 -7 323
10 41 19 67 21 57 2 -9 7 -17 12 -17z m-756 -43 c22 -50 33 -219 18 -257 -10
-22 -11 -20 -11 23 -1 26 -2 50 -3 55 -9 34 -33 222 -29 222 4 0 14 -19 25
-43z m-614 -122 c4 3 8 -5 8 -18 0 -12 3 -33 7 -47 5 -17 4 -22 -3 -15 -11 11
-73 202 -71 220 1 5 12 -25 26 -68 13 -42 28 -75 33 -72z m677 63 c-2 -13 -4
-5 -4 17 -1 22 1 32 4 23 2 -10 2 -28 0 -40z m-444 -245 c37 -67 67 -129 67
-139 0 -9 20 -63 45 -120 25 -56 45 -107 45 -111 -1 -16 -237 442 -289 561
-17 38 -31 72 -31 75 1 12 97 -146 163 -266z m-236 215 c-3 -8 -6 -5 -6 6 -1
11 2 17 5 13 3 -3 4 -12 1 -19z m420 -40 c-2 -13 -4 -5 -4 17 -1 22 1 32 4 23
2 -10 2 -28 0 -40z m40 -80 c-2 -24 -4 -7 -4 37 0 44 2 63 4 43 2 -21 2 -57 0
-80z m-30 -45 c-2 -16 -4 -5 -4 22 0 28 2 40 4 28 2 -13 2 -35 0 -50z m1075
-24 c-21 -46 -42 -92 -45 -102 -13 -34 14 -6 44 49 57 100 52 68 -6 -44 -33
-64 -62 -109 -68 -105 -6 4 -8 0 -4 -11 4 -9 3 -15 -2 -11 -5 3 -12 -1 -14 -7
-3 -7 -4 2 -2 20 2 18 8 39 14 46 6 7 8 16 5 19 -4 3 19 59 50 123 65 132 86
150 28 23z m69 48 c-10 -9 -11 -8 -5 6 3 10 9 15 12 12 3 -3 0 -11 -7 -18z
m-544 -59 c-3 -8 -6 -5 -6 6 -1 11 2 17 5 13 3 -3 4 -12 1 -19z m-590 -50 c-2
-13 -4 -5 -4 17 -1 22 1 32 4 23 2 -10 2 -28 0 -40z m558 -15 c-10 -53 -18
-32 -9 24 4 26 10 40 12 30 2 -11 1 -35 -3 -54z m22 10 c-3 -10 -5 -4 -5 12 0
17 2 24 5 18 2 -7 2 -21 0 -30z m-11 -59 c-4 -14 -9 -24 -12 -21 -3 2 -2 17 2
31 3 15 9 25 11 22 3 -3 2 -17 -1 -32z m-594 -82 l39 -67 -3 48 c-2 26 0 47 5
47 4 0 7 -24 6 -54 -2 -40 3 -61 18 -82 29 -42 38 -63 14 -34 -24 30 -151 238
-151 247 0 10 25 -27 72 -105z m35 66 c-3 -7 -5 -2 -5 12 0 14 2 19 5 13 2 -7
2 -19 0 -25z m-678 -130 c13 -38 0 -26 -17 15 -7 16 -8 26 -3 23 5 -3 14 -20
20 -38z m699 -218 c14 -30 28 -59 30 -64 3 -5 -1 -5 -8 -1 -16 10 -135 258
-144 300 -6 26 39 -60 122 -235z m-58 230 c6 -11 8 -20 6 -20 -3 0 -10 9 -16
20 -6 11 -8 20 -6 20 3 0 10 -9 16 -20z m620 -81 c12 -23 19 -43 16 -46 -4 -4
-46 69 -46 82 0 15 12 1 30 -36z m-1120 -89 c23 -51 39 -94 37 -97 -3 -2 -21
36 -42 84 -46 110 -50 119 -42 112 4 -3 25 -48 47 -99z m636 -116 c-4 -18 -11
-34 -17 -34 -9 0 -6 23 8 75 9 32 16 -1 9 -41z m38 -49 c4 -34 3 -43 -3 -30
-9 19 -15 93 -7 84 2 -2 6 -26 10 -54z m-1024 -359 c96 -19 263 -51 370 -71
287 -54 542 -102 740 -140 96 -18 291 -55 434 -81 242 -45 285 -58 262 -81 -3
-3 -137 20 -298 51 -652 128 -952 185 -1563 297 -137 25 -169 35 -160 49 9 15
24 13 215 -24z m-327 -98 c14 -24 21 -45 15 -47 -18 -6 -127 21 -139 35 -14
18 3 41 34 47 56 11 65 7 90 -35z m-96 -54 c-3 -3 -12 -4 -19 -1 -8 3 -5 6 6
6 11 1 17 -2 13 -5z m-83 -19 c-7 -16 -24 -21 -24 -6 0 8 7 13 27 20 1 1 0 -6
-3 -14z m144 6 c10 -6 10 -10 -3 -21 -9 -7 -14 -19 -11 -26 3 -7 0 -16 -6 -20
-7 -4 -8 -3 -4 5 4 7 -2 14 -15 19 l-22 9 21 15 c12 8 19 18 15 21 -9 10 9 8
25 -2z m-138 -46 c-13 -14 -27 -25 -31 -25 -11 0 33 48 45 49 5 1 -1 -10 -14
-24z m36 -4 c-10 -10 -14 -21 -9 -23 4 -3 2 -3 -4 -2 -7 2 -17 -4 -22 -14 -5
-9 -12 -14 -16 -11 -7 7 44 66 59 68 5 0 1 -8 -8 -18z m-123 -16 c-3 -9 -8
-14 -10 -11 -3 3 -2 9 2 15 9 16 15 13 8 -4z m247 5 c0 -5 -4 -10 -10 -10 -5
0 -10 5 -10 10 0 6 5 10 10 10 6 0 10 -4 10 -10z m-65 -20 c-3 -5 -14 -10 -23
-9 -14 0 -13 2 3 9 27 11 27 11 20 0z m26 -19 c-7 -5 -11 -13 -7 -19 3 -6 1
-14 -5 -18 -8 -4 -9 -3 -5 4 4 7 2 12 -5 12 -8 0 -8 4 1 15 7 8 18 15 24 15 6
0 5 -4 -3 -9z m-91 -11 c0 -5 -4 -10 -10 -10 -5 0 -10 5 -10 10 0 6 5 10 10
10 6 0 10 -4 10 -10z m198 -20 c-7 -10 -14 -17 -17 -15 -4 4 18 35 25 35 2 0
-1 -9 -8 -20z m-263 0 c-3 -5 -12 -10 -18 -10 -7 0 -6 4 3 10 19 12 23 12 15
0z m-125 -15 c11 -13 10 -14 -4 -9 -9 3 -16 10 -16 15 0 13 6 11 20 -6z m287
-7 c-18 -9 -18 -10 0 -23 16 -12 15 -13 -11 -8 -24 5 -28 3 -23 -10 3 -8 0
-20 -7 -26 -10 -8 -12 -6 -11 9 1 22 55 83 64 74 3 -3 -2 -10 -12 -16z m-144
1 c-6 -6 -9 -17 -7 -24 3 -7 1 -16 -5 -20 -15 -9 -14 28 1 43 7 7 14 12 17 12
3 0 0 -5 -6 -11z m92 -9 c-3 -5 -12 -10 -18 -10 -7 0 -6 4 3 10 19 12 23 12
15 0z m185 4 c0 -3 -11 -15 -25 -26 -14 -11 -25 -28 -25 -38 0 -9 -7 -23 -15
-30 -23 -19 -18 -27 18 -33 20 -3 42 1 57 11 l25 15 -19 -22 c-20 -22 -36 -22
-100 -4 -14 4 -18 1 -13 -10 4 -11 2 -14 -9 -10 -12 4 -10 11 13 35 15 16 28
35 28 41 0 15 46 76 58 76 4 1 7 -2 7 -5z m-59 -23 c-14 -10 -32 -16 -40 -13
-13 5 -12 7 4 10 11 2 24 8 30 13 5 5 14 9 20 9 5 0 -1 -9 -14 -19z m-447 -16
c-4 -8 -11 -15 -16 -15 -6 0 -5 6 2 15 7 8 14 15 16 15 2 0 1 -7 -2 -15z m306
-9 c0 -3 -12 -13 -27 -24 -25 -17 -32 -18 -68 -6 l-40 13 47 -4 c32 -3 50 0
58 10 12 14 30 20 30 11z m120 -23 c0 -5 -12 -17 -27 -27 -22 -16 -32 -18 -65
-9 -32 9 -40 8 -47 -6 -5 -9 -13 -12 -18 -8 -17 18 26 35 65 26 20 -4 37 -9
38 -11 0 -2 8 3 17 11 9 7 14 17 11 22 -3 5 2 9 10 9 9 0 16 -3 16 -7z m124
-67 c-16 -19 -33 -35 -38 -35 -6 -1 5 14 23 33 21 22 31 39 26 48 -6 10 -5 10
5 1 10 -10 7 -19 -16 -47z m-349 35 c3 -5 1 -12 -5 -16 -5 -3 -10 1 -10 9 0
18 6 21 15 7z m-290 -11 c3 -5 1 -10 -4 -10 -6 0 -11 5 -11 10 0 6 2 10 4 10
3 0 8 -4 11 -10z m384 -49 c-19 -22 -38 -40 -43 -40 -4 -1 7 17 25 38 19 22
38 40 43 40 4 1 -7 -17 -25 -38z m-19 25 c0 -2 -8 -10 -17 -17 -16 -13 -17
-12 -4 4 13 16 21 21 21 13z m-127 -26 c-3 -12 -8 -19 -11 -16 -2 3 -14 1 -26
-5 -13 -7 -10 -1 9 15 17 14 31 25 32 26 0 0 -1 -9 -4 -20z m268 -24 c-21 -21
-30 -39 -26 -47 6 -8 4 -10 -4 -5 -7 5 -21 0 -32 -10 -10 -9 -19 -14 -19 -10
0 9 93 103 104 104 6 1 -5 -13 -23 -32z m-21 21 c0 -2 -10 -12 -22 -23 l-23
-19 19 23 c18 21 26 27 26 19z m1697 -13 c-3 -3 -12 -4 -19 -1 -8 3 -5 6 6 6
11 1 17 -2 13 -5z m-2272 -27 c0 -7 94 -36 230 -69 224 -56 450 -114 568 -146
48 -13 55 -17 38 -24 -29 -10 -88 1 -69 14 9 6 6 7 -9 3 -12 -3 -93 12 -185
36 -90 23 -175 44 -189 46 -28 5 -40 -3 -179 -127 -129 -114 -144 -124 -50
-32 47 46 76 79 64 73 -11 -5 -26 -6 -34 -1 -8 5 -18 6 -22 4 -4 -3 -8 -1 -8
5 0 10 -69 37 -85 32 -5 -1 -7 1 -3 5 10 9 -111 66 -124 57 -7 -4 -8 -1 -3 7
6 10 3 12 -13 8 -14 -4 -20 -2 -15 5 4 6 0 8 -10 4 -10 -4 -16 -2 -14 5 1 7
-2 12 -8 13 -5 0 -17 5 -27 10 -14 9 -9 15 29 45 26 20 55 33 69 32 13 -1 26
3 30 9 7 12 19 3 19 -14z m714 -15 c-19 -21 -36 -37 -38 -36 -5 5 53 72 63 73
4 1 -7 -16 -25 -37z m1618 32 c-3 -3 -12 -4 -19 -1 -8 3 -5 6 6 6 11 1 17 -2
13 -5z m-1947 -7 c0 -2 -10 -12 -22 -23 l-23 -19 19 23 c18 21 26 27 26 19z
m16 -25 c-17 -16 -18 -16 -5 5 7 12 15 20 18 17 3 -2 -3 -12 -13 -22z m2174
-14 c118 -23 217 -44 219 -45 2 -2 2 -6 -2 -9 -3 -3 -34 1 -69 9 -35 8 -90 20
-123 27 -146 30 -202 42 -230 50 -69 19 3 8 205 -32z m-2435 3 c13 -8 14 -11
3 -7 -9 3 -34 8 -55 12 l-38 8 30 6 c17 3 32 3 35 0 3 -4 14 -12 25 -19z m101
-11 c0 -18 -5 -20 -31 -14 -40 8 -54 22 -16 16 16 -2 32 1 35 7 10 15 12 14
12 -9z m118 -24 c-6 -15 4 -19 64 -31 27 -6 39 -2 60 17 l27 23 -24 -27 c-14
-16 -21 -28 -16 -28 5 0 6 -2 3 -5 -5 -5 -177 40 -186 49 -3 4 8 3 25 0 18 -3
33 -1 37 5 10 16 16 14 10 -3z m459 -11 c-3 -9 -8 -14 -10 -11 -3 3 -2 9 2 15
9 16 15 13 8 -4z m-266 -127 c90 -22 161 -43 159 -45 -2 -2 -23 1 -46 7 -23 6
-49 9 -57 6 -8 -3 -11 -1 -8 4 4 6 -5 10 -20 10 -14 0 -24 -4 -21 -9 7 -10 -9
-8 -37 4 -10 4 -21 5 -24 1 -3 -3 -12 -1 -19 5 -8 6 -21 9 -29 5 -9 -3 -13 -2
-10 4 3 6 -2 10 -12 10 -15 0 -16 2 -3 10 11 8 7 9 -15 4 -16 -3 -36 -7 -42
-10 -22 -6 -14 6 10 16 l22 9 -23 0 c-13 1 -52 -24 -100 -65 l-77 -65 73 70
c45 43 82 71 95 71 12 0 95 -19 184 -42z m200 -54 c-3 -3 -12 -4 -19 -1 -8 3
-5 6 6 6 11 1 17 -2 13 -5z m-557 -47 c0 -2 -15 -16 -32 -33 l-33 -29 29 33
c28 30 36 37 36 29z m2221 -890 c-10 -9 -11 -8 -5 6 3 10 9 15 12 12 3 -3 0
-11 -7 -18z m-41 -57 c-5 -22 -8 -27 -9 -13 -1 21 9 56 14 51 2 -2 0 -19 -5
-38z"/>
<path d="M1498 1343 c7 -3 16 -2 19 1 4 3 -2 6 -13 5 -11 0 -14 -3 -6 -6z"/>
<path d="M1180 1370 c0 -5 7 -7 15 -4 8 4 15 8 15 10 0 2 -7 4 -15 4 -8 0 -15
-4 -15 -10z"/>
<path d="M1225 1360 c4 -6 11 -8 16 -5 14 9 11 15 -7 15 -8 0 -12 -5 -9 -10z"/>
</g>
</svg>
