<?xml version="1.0" standalone="no"?>
<!DOCTYPE svg PUBLIC "-//W3C//DTD SVG 20010904//EN"
 "http://www.w3.org/TR/2001/REC-SVG-20010904/DTD/svg10.dtd">
<svg version="1.0" xmlns="http://www.w3.org/2000/svg"
 width="400.000000pt" height="400.000000pt" viewBox="0 0 400.000000 400.000000"
 preserveAspectRatio="xMidYMid meet">

<g transform="translate(0.000000,400.000000) scale(0.100000,-0.100000)"
fill="#000000" stroke="none">
<path d="M2105 3000 c-216 -30 -519 -70 -643 -85 -64 -7 -234 -29 -377 -49
-143 -19 -368 -49 -500 -66 -163 -22 -270 -41 -335 -61 -129 -40 -130 -40
-105 -83 11 -19 143 -159 293 -312 150 -152 271 -279 268 -281 -2 -3 -98 -27
-212 -54 -220 -53 -346 -92 -366 -116 -17 -21 14 -75 61 -106 46 -31 553 -319
926 -526 l290 -162 125 5 c370 14 427 21 561 63 155 50 301 114 579 253 233
116 392 185 739 320 l224 87 66 79 c41 48 86 90 118 108 31 18 56 41 66 61
l16 33 -62 39 c-34 22 -267 172 -517 333 -250 161 -477 307 -505 325 -27 17
-113 72 -190 121 l-140 89 -125 2 c-76 1 -176 -5 -255 -17z m-1449 -395 c12
-8 24 -12 27 -9 10 10 36 -11 29 -23 -5 -9 -22 -4 -57 17 -28 16 -43 30 -35
30 9 0 25 -7 36 -15z m99 -55 c-3 -5 2 -10 11 -10 10 0 15 -3 11 -6 -10 -10
-39 5 -32 16 3 5 8 10 11 10 3 0 2 -4 -1 -10z m1415 -10 c-8 -5 -32 -10 -52
-10 -20 0 -40 -4 -43 -10 -3 -5 -20 -10 -36 -10 -17 0 -40 -5 -52 -12 -12 -7
-33 -11 -45 -9 -27 3 -82 -17 -82 -30 0 -5 10 -9 21 -9 19 0 20 -2 8 -16 -30
-37 53 -53 113 -23 9 5 29 9 43 9 14 0 34 4 43 9 9 4 44 11 77 14 57 5 58 5
15 -5 -25 -5 -53 -14 -63 -19 -9 -5 -38 -12 -64 -16 -42 -6 -44 -7 -22 -15 21
-8 22 -11 8 -21 -9 -7 -18 -32 -22 -56 -3 -25 -12 -48 -21 -53 -9 -5 -16 -16
-16 -23 0 -8 -5 -15 -11 -15 -5 0 -8 -4 -5 -8 6 -10 -38 -54 -71 -71 -13 -6
-23 -19 -23 -27 0 -10 -6 -14 -15 -10 -8 3 -15 1 -15 -4 0 -6 4 -10 9 -10 14
0 103 -61 98 -67 -3 -2 -24 7 -46 21 -23 15 -72 43 -109 63 -37 19 -78 43 -92
52 -14 9 -42 25 -62 36 -21 11 -35 21 -33 23 4 4 110 -48 163 -80 18 -11 35
-18 38 -15 3 3 -3 8 -14 11 -27 9 -35 34 -17 53 8 8 13 19 9 24 -8 14 27 99
53 127 13 14 23 31 23 39 0 10 5 11 19 3 27 -14 38 -13 18 3 -9 6 -25 28 -35
48 -18 35 -18 35 4 52 13 9 39 17 59 17 20 0 46 6 58 13 18 10 130 31 187 36
13 1 13 0 0 -9z m51 -42 c28 -31 23 -41 -6 -14 -14 13 -25 26 -25 30 0 12 13
6 31 -16z m-106 -8 c-3 -5 -10 -10 -16 -10 -5 0 -9 5 -9 10 0 6 7 10 16 10 8
0 12 -4 9 -10z m55 -10 c0 -5 -8 -10 -17 -10 -15 0 -16 2 -3 10 19 12 20 12
20 0z m-102 -17 c2 -8 -6 -13 -22 -13 -26 0 -40 12 -29 24 11 11 46 2 51 -11z
m-103 -33 c-3 -5 -14 -10 -23 -10 -15 0 -15 2 -2 10 20 13 33 13 25 0z m-1507
-55 c-3 -3 -9 2 -12 12 -6 14 -5 15 5 6 7 -7 10 -15 7 -18z m382 -377 c0 -7
-250 241 -330 328 -25 27 40 -34 143 -136 103 -102 187 -188 187 -192z m890
117 c30 -18 83 -48 118 -66 34 -18 62 -36 62 -40 0 -4 12 -10 26 -13 15 -4 24
-9 21 -12 -5 -5 -58 16 -87 35 -8 6 -49 29 -90 52 -78 44 -129 79 -114 79 5
-1 34 -16 64 -35z m-844 -156 c20 -22 23 -28 8 -19 -18 11 -50 50 -41 50 2 0
16 -14 33 -31z m2764 -83 c0 -3 -4 -8 -10 -11 -5 -3 -10 -1 -10 4 0 6 5 11 10
11 6 0 10 -2 10 -4z m-2639 -43 c13 -16 12 -17 -3 -4 -10 7 -18 15 -18 17 0 8
8 3 21 -13z m2313 -5 c-10 -12 -29 -34 -42 -48 -12 -14 -25 -33 -28 -42 -3
-10 -10 -18 -15 -18 -10 0 7 27 59 98 13 17 29 32 35 32 5 0 2 -10 -9 -22z
m216 -8 c0 -5 -4 -10 -10 -10 -5 0 -10 5 -10 10 0 6 5 10 10 10 6 0 10 -4 10
-10z m-2449 -67 c13 -16 12 -17 -3 -4 -17 13 -22 21 -14 21 2 0 10 -8 17 -17z
m-433 -68 c18 -4 38 -13 46 -20 7 -7 58 -34 112 -60 54 -25 106 -51 114 -56 8
-5 31 -16 50 -25 54 -23 233 -115 255 -130 11 -8 30 -14 43 -14 12 0 25 -7 28
-15 4 -8 12 -15 20 -15 8 0 14 -7 14 -15 0 -8 -2 -15 -5 -15 -10 0 -730 362
-740 372 -7 7 -4 9 10 5 11 -3 35 -8 53 -12z m503 -2 c13 -16 12 -17 -3 -4
-10 7 -18 15 -18 17 0 8 8 3 21 -13z m-399 -13 c18 -11 29 -20 23 -20 -5 0
-23 9 -40 20 -39 26 -25 26 17 0z m439 -27 c13 -16 12 -17 -3 -4 -17 13 -22
21 -14 21 2 0 10 -8 17 -17z m-336 -31 c-3 -3 -11 0 -18 7 -9 10 -8 11 6 5 10
-3 15 -9 12 -12z m1785 -46 c-8 -8 -28 -18 -45 -21 -26 -5 -25 -4 10 14 49 24
53 25 35 7z m-1937 -33 c19 -10 27 -18 19 -21 -15 -5 -62 36 -61 52 0 6 3 5 6
-2 3 -7 19 -20 36 -29z m1802 -30 c-16 -9 -46 -22 -65 -29 -67 -25 10 -15 84
10 43 15 63 19 55 10 -8 -7 -64 -27 -124 -44 -61 -17 -136 -38 -168 -47 -125
-35 -56 3 158 90 77 31 107 36 60 10z m-349 -188 c10 -8 15 -14 9 -14 -5 0
-19 6 -29 14 -11 8 -15 15 -10 15 6 0 19 -7 30 -15z m-196 -86 c0 -4 -13 -2
-29 4 -17 6 -28 14 -25 19 5 8 54 -12 54 -23z"/>
<path d="M1968 2373 c6 -2 18 -2 25 0 6 3 1 5 -13 5 -14 0 -19 -2 -12 -5z"/>
</g>
</svg>
